<?xml version="1.0" standalone="no"?>
<!DOCTYPE svg PUBLIC "-//W3C//DTD SVG 1.1//EN" "http://www.w3.org/Graphics/SVG/1.1/DTD/svg11.dtd" >
<svg xmlns="http://www.w3.org/2000/svg">
<metadata>Generated by IcoMoon</metadata>
<defs>
<font id="lbabcaisse" horiz-adv-x="1024">
<font-face units-per-em="1024" ascent="960" descent="-64" />
<missing-glyph horiz-adv-x="1024" />
<glyph unicode="&#x20;" horiz-adv-x="512" d="" />
<glyph unicode="&#xe600;" glyph-name="uniE600" d="M42.668 851.834v-896h895.148v896h-895.148zM852.566 553.166h-213.164v213.332h213.164v-213.332zM852.566 297.166h-213.164v213.334h213.164v-213.334zM852.566 41.166h-213.164v213.332h213.164v-213.332zM127.916 254.5h213.164v-213.332h-213.164v213.332zM127.916 510.5h213.164v-213.334h-213.164v213.334zM127.916 766.5h213.164v-213.332h-213.164v213.332zM596.822 553.166h-213.12v213.332h213.164v-213.332zM596.822 297.166h-213.12v213.334h213.164v-213.334zM383.702 254.5h213.164v-213.332h-213.164v213.332z" />
<glyph unicode="&#xe601;" glyph-name="uniE601" d="M512 228.634c-13.702 0-27.402 5.232-37.846 15.668l-328.694 328.704c-20.91 20.91-20.91 54.804 0 75.704 20.9 20.9 54.794 20.9 75.704 0l290.836-290.846 290.836 290.836c20.91 20.9 54.804 20.9 75.704 0 20.91-20.9 20.91-54.794 0-75.704l-328.694-328.704c-10.446-10.434-24.146-15.658-37.846-15.658z" />
<glyph unicode="&#xe602;" glyph-name="uniE602" horiz-adv-x="1072" d="M908.204 561.162h-6.812c-1.514 4.54-3.784 7.568-6.812 9.082l-267.92 288.356c1.514 6.056 2.27 12.11 2.27 18.164 0 22.704-7.192 42.004-21.57 57.898s-32.166 23.84-53.356 23.84h-84.010c-19.678 0-36.706-7.948-51.086-23.84s-21.57-35.192-21.57-57.898v-18.164l-267.92-288.356c-1.514-1.514-3.784-4.54-6.812-9.082h-122.608v-161.206h47.68v-349.658c0-31.788 11.354-59.034 34.058-81.738s49.95-34.058 81.738-34.058h744.726c31.788 0 59.034 11.352 81.738 34.058s34.058 49.952 34.058 81.738v349.658h47.682v161.206h-163.476zM256.568 73c0-12.11-4.54-22.706-13.622-31.788s-20.056-13.624-32.922-13.624-23.84 4.542-32.922 13.624-13.622 19.678-13.622 31.788v279.274c0 13.624 4.54 24.976 13.622 34.058s20.056 13.624 32.922 13.624 23.84-4.542 32.922-13.624 13.622-20.434 13.622-34.058v-279.274zM465.454 73c0-12.11-4.54-22.706-13.622-31.788s-20.056-13.624-32.922-13.624-23.84 4.542-32.922 13.624-13.622 19.678-13.622 31.788v279.274c0 13.624 4.54 24.976 13.622 34.058s20.056 13.624 32.922 13.624 23.84-4.542 32.922-13.624 13.622-20.434 13.622-34.058v-279.274zM699.318 73c0-12.11-4.542-22.706-13.624-31.788s-20.054-13.624-32.922-13.624-23.84 4.542-32.922 13.624-13.624 19.678-13.624 31.788v279.274c0 13.624 4.542 24.976 13.624 34.058s20.054 13.624 32.922 13.624 23.84-4.542 32.922-13.624 13.624-20.434 13.624-34.058v-279.274zM249.756 561.162l215.698 233.862h93.090l217.968-233.862h-526.758zM908.204 73c0-12.11-4.542-22.706-13.624-31.788s-20.054-13.624-32.922-13.624-23.84 4.542-32.922 13.624-13.624 19.678-13.624 31.788v279.274c0 13.624 4.542 24.976 13.624 34.058s20.054 13.624 32.922 13.624 23.84-4.542 32.922-13.624 13.624-20.434 13.624-34.058v-279.274z" />
<glyph unicode="&#xe603;" glyph-name="uniE603" horiz-adv-x="1516" d="M875.764 241.65c0 3.808-1.332 7.616-3.998 11.424-21.336 25.538-38.476 47.442-51.432 65.718 7.996 15.612 14.092 30.088 18.278 43.414l88.576 13.712c3.438 0.386 6.48 2.384 9.146 5.996 2.664 3.634 3.99 7.336 3.99 11.144v105.724c0 4.188-1.326 7.904-3.99 11.138s-5.906 5.24-9.714 5.99l-86.858 13.144c-4.202 12.954-10.674 28.582-19.434 46.858 5.708 8.388 14.288 19.822 25.72 34.29 11.424 14.476 19.434 24.758 24 30.852 2.664 3.808 3.998 7.436 3.998 10.858 0 10.288-27.432 40.764-82.278 91.43-3.808 3.044-7.806 4.566-12.006 4.566-4.566 0-8.374-1.318-11.432-3.998l-67.43-50.856c-15.612 7.996-29.9 13.902-42.854 17.718l-13.144 87.426c-0.372 3.808-2.278 7.146-5.708 10.002s-7.238 4.286-11.432 4.286h-106.278c-8.76 0-14.476-4.574-17.142-13.712-4.572-17.528-8.95-46.866-13.144-88-16.378-5.33-31.044-11.426-43.998-18.286l-65.712 51.424c-3.808 2.672-7.806 3.998-12 3.998-7.246 0-22.29-11.236-45.146-33.716-22.858-22.472-38.484-39.424-46.858-50.856-2.672-3.052-3.998-6.86-3.998-11.432 0-3.424 1.326-7.23 3.998-11.426 21.33-25.53 38.47-47.434 51.424-65.712-7.996-15.626-14.092-30.096-18.278-43.428l-88.576-13.706c-3.43-0.378-6.474-2.378-9.146-5.99-2.664-3.626-3.998-7.336-3.998-11.144v-105.71c0-4.194 1.332-7.91 3.998-11.144 2.672-3.24 5.906-5.050 9.722-5.428l86.858-13.712c4.572-14.476 11.242-30.096 20.002-46.86-6.096-8.388-15.044-20.010-26.856-34.858-11.818-14.862-19.624-24.962-23.432-30.284-2.666-3.808-3.998-7.442-3.998-10.856 0-10.296 27.43-40.764 82.286-91.432 3.808-3.044 7.806-4.558 12-4.558 4.952 0 8.76 1.318 11.426 3.99l67.43 50.856c15.612-8.004 29.9-13.9 42.854-17.71l13.144-87.432c0.38-3.808 2.286-7.148 5.71-10.002 3.43-2.856 7.238-4.278 11.432-4.278h106.278c8.768 0 14.476 4.566 17.14 13.712 4.572 17.914 8.948 47.434 13.144 88.576 15.234 4.558 29.9 10.478 43.996 17.702l65.718-51.424c3.808-2.672 7.806-3.99 12-3.99 7.238 0 22.198 11.326 44.86 34.002 22.66 22.654 38.38 39.712 47.146 51.144 2.664 2.65 3.998 6.27 3.998 10.842zM678.048 343.356c-28.568-28.568-63.046-42.854-103.424-42.854-40.384 0-74.864 14.288-103.43 42.854s-42.854 63.046-42.854 103.43c0 40.378 14.286 74.858 42.854 103.424 28.568 28.574 63.046 42.854 103.43 42.854 40.378 0 74.856-14.28 103.424-42.854 28.574-28.568 42.854-63.046 42.854-103.424 0-40.384-14.28-74.864-42.854-103.432zM1220.904 211.928c-4.944 11.048-10.662 20.95-17.134 29.716 19.428 43.050 29.134 69.336 29.134 78.856 0 1.514-0.75 2.856-2.278 3.998-45.722 26.666-69.336 40-70.858 40l-3.43-1.15c-15.612-15.62-33.146-36.956-52.568-64-7.616 0.756-13.326 1.15-17.134 1.15-3.822 0-9.526-0.394-17.148-1.15-5.316 8.010-15.234 20.866-29.702 38.576s-23.236 26.576-26.288 26.576c-0.756 0-6.474-3.052-17.14-9.154-10.668-6.096-21.904-12.568-33.716-19.434-11.826-6.866-18.474-10.668-20.004-11.432-1.536-1.136-2.286-2.476-2.286-3.99 0-9.524 9.714-35.798 29.134-78.856-6.466-8.768-12.182-18.67-17.134-29.71-56.77-5.708-85.154-11.616-85.154-17.71v-79.998c0-6.096 28.384-12 85.154-17.71 4.558-10.282 10.282-20.192 17.134-29.702-19.422-43.050-29.134-69.336-29.134-78.862 0-1.514 0.75-2.856 2.286-3.998 46.466-27.044 70.096-40.568 70.86-40.568 3.052 0 11.818 8.948 26.288 26.856 14.47 17.914 24.38 30.852 29.702 38.856 7.616-0.75 13.326-1.136 17.148-1.136 3.808 0 9.518 0.386 17.134 1.136 5.324-8.004 15.234-20.942 29.71-38.856 14.47-17.906 23.23-26.856 26.288-26.856 0.758 0 24.386 13.528 70.858 40.568 1.528 1.144 2.278 2.476 2.278 3.998 0 9.524-9.714 35.812-29.134 78.862 6.852 9.51 12.568 19.422 17.134 29.702 56.77 5.708 85.154 11.616 85.154 17.71v79.998c0 6.096-28.384 12-85.154 17.716zM1138.33 102.5c-14.272-14.288-31.52-21.442-51.712-21.442s-37.432 7.154-51.712 21.442c-14.288 14.288-21.434 31.52-21.434 51.712 0 19.808 7.246 36.962 21.722 51.432s31.618 21.714 51.424 21.714 36.962-7.238 51.438-21.714c14.47-14.47 21.714-31.626 21.714-51.432-0.008-20.192-7.146-37.424-21.442-51.712zM1220.904 797.072c-4.944 11.048-10.662 20.95-17.134 29.716 19.428 43.044 29.134 69.33 29.134 78.856 0 1.516-0.75 2.856-2.278 3.998-45.722 26.666-69.336 40-70.858 40l-3.43-1.144c-15.612-15.626-33.146-36.956-52.568-64-7.616 0.758-13.326 1.144-17.134 1.144-3.822 0-9.526-0.386-17.148-1.144-5.316 8.004-15.234 20.86-29.702 38.568-14.47 17.716-23.236 26.576-26.288 26.576-0.756 0-6.474-3.044-17.14-9.146s-21.904-12.576-33.716-19.434c-11.826-6.86-18.474-10.668-20.004-11.426-1.536-1.142-2.286-2.476-2.286-3.998 0-9.524 9.714-35.812 29.134-78.856-6.466-8.766-12.182-18.67-17.134-29.716-56.77-5.71-85.154-11.616-85.154-17.71v-79.998c0-6.096 28.384-12 85.154-17.71 4.558-10.282 10.282-20.192 17.134-29.716-19.422-43.050-29.134-69.33-29.134-78.856 0-1.514 0.75-2.856 2.286-3.998 46.466-27.044 70.096-40.568 70.86-40.568 3.052 0 11.818 8.95 26.288 26.856s24.38 30.854 29.702 38.856c7.616-0.756 13.326-1.142 17.148-1.142 3.808 0 9.518 0.386 17.134 1.142 5.324-8.002 15.234-20.95 29.71-38.856 14.47-17.906 23.23-26.856 26.288-26.856 0.758 0 24.386 13.522 70.858 40.568 1.528 1.144 2.278 2.476 2.278 3.998 0 9.524-9.714 35.806-29.134 78.856 6.852 9.524 12.568 19.428 17.134 29.716 56.77 5.708 85.154 11.616 85.154 17.71v79.998c0 6.096-28.384 12-85.154 17.716zM1138.33 687.644c-14.272-14.288-31.52-21.434-51.712-21.434s-37.432 7.146-51.712 21.434c-14.288 14.28-21.434 31.52-21.434 51.712 0 19.808 7.246 36.954 21.722 51.432s31.618 21.714 51.424 21.714 36.962-7.246 51.438-21.714c14.47-14.476 21.714-31.626 21.714-51.432-0.008-20.192-7.146-37.432-21.442-51.712z" />
<glyph unicode="&#xe604;" glyph-name="uniE604" d="M448 126.5h-212.128l217.568 217.568-45.248 45.248-217.216-217.216 1.024 210.4c0 17.664-14.336 32-32 32s-32-14.336-32-32v-288c0-9.472 3.904-17.12 10.112-22.368 5.792-5.92 13.856-9.632 22.784-9.632h287.104c17.664 0 32 14.336 32 32s-14.336 32-32 32zM896 958.5h-768c-70.688 0-128-57.312-128-128v-768c0-70.688 57.312-128 128-128h768c70.688 0 128 57.312 128 128v768c0 70.688-57.312 128-128 128zM960 62.5c0-35.328-28.64-64-64-64h-768c-35.36 0-64 28.64-64 64v768c0 35.328 28.64 64 64 64h768c35.36 0 64-28.64 64-64v-768zM863.104 830.5h-287.104c-17.664 0-32-14.336-32-32s14.336-32 32-32h212.128l-217.568-217.568 45.248-45.248 217.216 217.216-1.024-210.4c0-17.664 14.336-32 32-32s32 14.336 32 32v288c0 9.472-3.904 17.12-10.112 22.4-5.792 5.92-13.856 9.6-22.784 9.6z" />
<glyph unicode="&#xe605;" glyph-name="uniE605" d="M626.556 845.308l-398.812-398.808 398.812-398.808 113.132 113.14-285.672 285.668 285.672 285.668z" />
<glyph unicode="&#xe606;" glyph-name="uniE606" horiz-adv-x="478" d="M476.89 446.5l-460.816-512.010-16.074 14.472 447.762 497.538-447.772 497.538 16.074 14.462 460.826-512z" />
<glyph unicode="&#xe607;" glyph-name="uniE607" d="M0 544c0-59.562 40.876-109.188 96-123.5v-420.5h-64c-17.626 0-32-14.312-32-32s14.376-32 32-32h960c17.75 0 32 14.312 32 32s-14.25 32-32 32h-64v420.5c55.126 14.312 96 63.938 96 123.5v32h-1024v-32zM640 416c70.75 0 128 57.312 128 128 0-59.562 40.876-109.188 96-123.5v-420.5h-480v416c70.75 0 128 57.312 128 128 0-70.688 57.376-128 128-128zM352 420.5v-420.5h-192v420.5c55.126 14.312 96 63.938 96 123.5 0-59.562 40.876-109.188 96-123.5zM896 864h-768l-128-256h1024l-128 256zM270.376 792.874l-64-128c-2.876-5.626-8.5-8.876-14.376-8.876-2.376 0-4.812 0.5-7.126 1.688-7.876 3.938-11.126 13.562-7.126 21.438l64 128c4 7.876 13.562 11.062 21.438 7.188 7.94-3.938 11.064-13.562 7.19-21.438zM398.376 792.874l-64-128c-2.876-5.626-8.5-8.876-14.376-8.876-2.376 0-4.812 0.5-7.126 1.688-7.876 3.938-11.126 13.562-7.126 21.438l64 128c4 7.876 13.626 11.062 21.438 7.188 7.94-3.938 11.064-13.562 7.19-21.438zM528 672c0-8.876-7.126-16-16-16-8.812 0-16 7.126-16 16v128c0 8.876 7.188 16 16 16 8.876 0 16-7.126 16-16v-128zM711.75 658c-2.5-1.376-5.126-2-7.75-2-5.626 0-11.126 3-14 8.312l-70 128c-4.25 7.75-1.376 17.5 6.376 21.688 7.626 4.25 17.5 1.5 21.75-6.312l70-128c4.124-7.75 1.374-17.5-6.376-21.688zM839.126 657.688c-2.25-1.188-4.626-1.688-7.126-1.688-5.876 0-11.5 3.25-14.25 8.876l-64 128c-4 7.876-0.75 17.5 7.126 21.438 7.75 3.938 17.5 0.75 21.5-7.188l64-128c3.874-7.876 0.75-17.502-7.25-21.438zM272 187.124v73.75c-9.376 5.626-16 15.376-16 27.126 0 17.688 14.376 32 32 32 17.75 0 32-14.312 32-32 0-11.75-6.562-21.5-16-27.126v-73.75c9.438-5.626 16-15.376 16-27.126 0-17.688-14.25-32-32-32-17.626 0-32 14.312-32 32 0 11.752 6.626 21.502 16 27.126zM128 928c0 17.688 14.376 32 32 32h704c17.75 0 32-14.312 32-32s-14.25-32-32-32h-704c-17.624 0-32 14.312-32 32zM560.876 244.688l-22.626 22.626 90.5 90.5 22.626-22.626-90.5-90.5zM560.876 154.188l-22.626 22.626 181 181 22.626-22.626-181-181zM719.25 267.312l22.626-22.626-90.5-90.5-22.626 22.626 90.5 90.5z" />
<glyph unicode="&#xe900;" d="M1010.361 125.902l-108.695 192.839v227.043c0 49.311-40.079 89.39-89.39 89.39h-74.492v102.82h50.151c33.574 0 60.852 27.279 60.852 61.062v68.407c0 33.574-27.279 61.062-60.852 61.062h-204.17c-33.574 0-61.062-27.279-61.062-61.062v-68.616c0-33.574 27.279-61.062 61.062-61.062h50.151v-102.82h-422.4c-49.311 0-89.39-40.079-89.39-89.39v-227.043l-108.485-192.63c-18.466-32.734-18.046-73.233 0.839-105.757s54.138-52.669 91.698-52.669h811.646c37.561 0 72.813 20.144 91.698 52.669 19.095 32.525 19.305 73.023 0.839 105.757zM592.577 792.551c-4.826 0-8.813 3.987-8.813 8.813v67.148c0 4.826 3.987 8.813 8.813 8.813h200.184c4.826 0 8.813-3.987 8.813-8.813v-67.148c0-4.826-3.987-8.813-8.813-8.813h-200.184zM802.413 402.046h-560.472v136.813h560.472v-136.813z" />
<glyph unicode="&#xe901;" d="M350.426 219.698c0-12.168-22.077-22.033-49.311-22.033s-49.311 9.864-49.311 22.033c0 12.168 22.077 22.033 49.311 22.033s49.311-9.864 49.311-22.033z" />
<glyph unicode="&#xe902;" d="M301.115 196.616c-28.328 0-50.361 10.072-50.361 23.082s22.033 23.082 50.361 23.082 50.361-10.072 50.361-23.082-22.033-23.082-50.361-23.082zM301.115 240.682c-26.649 0-48.262-9.443-48.262-20.984s21.613-20.984 48.262-20.984 48.262 9.443 48.262 20.984-21.613 20.984-48.262 20.984z" />
<glyph unicode="&#xe903;" d="M561.311 219.698c0-12.168-22.077-22.033-49.311-22.033s-49.311 9.864-49.311 22.033c0 12.168 22.077 22.033 49.311 22.033s49.311-9.864 49.311-22.033z" />
<glyph unicode="&#xe904;" d="M512 196.616c-28.328 0-50.361 10.072-50.361 23.082s22.033 23.082 50.361 23.082 50.361-10.072 50.361-23.082-22.033-23.082-50.361-23.082zM512 240.682c-26.649 0-48.262-9.443-48.262-20.984s21.613-20.984 48.262-20.984c26.649 0 48.262 9.443 48.262 20.984s-21.613 20.984-48.262 20.984z" />
<glyph unicode="&#xe905;" d="M772.197 219.698c0-12.168-22.077-22.033-49.311-22.033s-49.311 9.864-49.311 22.033c0 12.168 22.077 22.033 49.311 22.033s49.311-9.864 49.311-22.033z" />
<glyph unicode="&#xe906;" d="M722.885 196.616c-28.328 0-50.361 10.072-50.361 23.082s22.033 23.082 50.361 23.082 50.361-10.072 50.361-23.082-22.033-23.082-50.361-23.082zM722.885 240.682c-26.649 0-48.262-9.443-48.262-20.984s21.613-20.984 48.262-20.984 48.262 9.443 48.262 20.984-21.613 20.984-48.262 20.984z" />
<glyph unicode="&#xe907;" d="M322.728 153.6c0-12.168-22.077-22.033-49.311-22.033s-49.311 9.864-49.311 22.033c0 12.168 22.077 22.033 49.311 22.033s49.311-9.864 49.311-22.033z" />
<glyph unicode="&#xe908;" d="M273.416 130.518c-28.328 0-50.361 10.072-50.361 23.082s22.033 23.082 50.361 23.082 50.361-10.072 50.361-23.082-22.243-23.082-50.361-23.082zM273.416 174.584c-26.649 0-48.262-9.443-48.262-20.984s21.613-20.984 48.262-20.984 48.262 9.443 48.262 20.984-21.823 20.984-48.262 20.984z" />
<glyph unicode="&#xe909;" d="M561.311 153.6c0-12.168-22.077-22.033-49.311-22.033s-49.311 9.864-49.311 22.033c0 12.168 22.077 22.033 49.311 22.033s49.311-9.864 49.311-22.033z" />
<glyph unicode="&#xe90a;" d="M512 130.518c-28.328 0-50.361 10.072-50.361 23.082s22.033 23.082 50.361 23.082 50.361-10.072 50.361-23.082-22.033-23.082-50.361-23.082zM512 174.584c-26.649 0-48.262-9.443-48.262-20.984s21.613-20.984 48.262-20.984c26.649 0 48.262 9.443 48.262 20.984s-21.613 20.984-48.262 20.984z" />
<glyph unicode="&#xe90b;" d="M800.105 153.6c0-12.168-22.077-22.033-49.311-22.033s-49.311 9.864-49.311 22.033c0 12.168 22.077 22.033 49.311 22.033s49.311-9.864 49.311-22.033z" />
<glyph unicode="&#xe90c;" d="M750.793 130.518c-28.328 0-50.361 10.072-50.361 23.082s22.033 23.082 50.361 23.082 50.361-10.072 50.361-23.082-22.243-23.082-50.361-23.082zM750.793 174.584c-26.649 0-48.262-9.443-48.262-20.984s21.613-20.984 48.262-20.984 48.262 9.443 48.262 20.984-21.823 20.984-48.262 20.984z" />
<glyph unicode="&#xe90d;" d="M288.105 87.502c0-12.168-22.077-22.033-49.311-22.033s-49.311 9.864-49.311 22.033c0 12.168 22.077 22.033 49.311 22.033s49.311-9.864 49.311-22.033z" />
<glyph unicode="&#xe90e;" d="M238.793 64.42c-28.328 0-50.361 10.072-50.361 23.082s22.033 23.082 50.361 23.082 50.361-10.072 50.361-23.082-22.243-23.082-50.361-23.082zM238.793 108.485c-26.649 0-48.262-9.443-48.262-20.984s21.613-20.984 48.262-20.984 48.262 9.443 48.262 20.984-21.823 20.984-48.262 20.984z" />
<glyph unicode="&#xe90f;" d="M561.311 87.502c0-12.168-22.077-22.033-49.311-22.033s-49.311 9.864-49.311 22.033c0 12.168 22.077 22.033 49.311 22.033s49.311-9.864 49.311-22.033z" />
<glyph unicode="&#xe910;" d="M512 64.42c-28.328 0-50.361 10.072-50.361 23.082s22.033 23.082 50.361 23.082 50.361-10.072 50.361-23.082-22.033-23.082-50.361-23.082zM512 108.485c-26.649 0-48.262-9.443-48.262-20.984s21.613-20.984 48.262-20.984c26.649 0 48.262 9.443 48.262 20.984s-21.613 20.984-48.262 20.984z" />
<glyph unicode="&#xe911;" d="M823.187 87.502c0-12.168-22.077-22.033-49.311-22.033s-49.311 9.864-49.311 22.033c0 12.168 22.077 22.033 49.311 22.033s49.311-9.864 49.311-22.033z" />
<glyph unicode="&#xe912;" d="M773.875 64.42c-28.328 0-50.361 10.072-50.361 23.082s22.033 23.082 50.361 23.082 50.361-10.072 50.361-23.082-22.243-23.082-50.361-23.082zM773.875 108.485c-26.649 0-48.262-9.443-48.262-20.984s21.613-20.984 48.262-20.984 48.262 9.443 48.262 20.984-21.823 20.984-48.262 20.984z" />
</font>
</defs>
</svg>
